<svg preserveAspectRatio="none" overflow="visible" style="display: block;" width="51.75" height="12" viewBox="0 0 51.75 12" fill="none" xmlns="http://www.w3.org/2000/svg">
<g id="&#226;&#145;&#164; &#235;&#161;&#156;&#234;&#179;&#160;/&#235;&#130;&#180;&#235;&#182;&#128;/Coloso">
<path id="Vector" d="M8.44617 11.5128C7.7277 11.8376 6.89798 12 5.95889 12C5.10277 12 4.31454 11.86 3.58853 11.5819C2.86441 11.3037 2.23647 10.9079 1.70469 10.3983C1.17292 9.88677 0.756171 9.27632 0.454455 8.56319C0.150853 7.85193 0 7.06599 0 6.20912C0 5.35224 0.15462 4.53643 0.461994 3.82517C0.769367 3.11391 1.19366 2.50718 1.73675 2.00687C2.27795 1.50656 2.91533 1.122 3.6451 0.853172C4.37488 0.584348 5.16123 0.449936 6.00604 0.449936C6.78861 0.449936 7.5561 0.586214 8.31228 0.860638C9.06845 1.13506 9.68131 1.53457 10.149 2.06101L8.3349 3.85691C8.0841 3.51714 7.75599 3.26325 7.35056 3.09897C6.94324 2.93469 6.5265 2.85068 6.10032 2.85068C5.63078 2.85068 5.20082 2.93656 4.81048 3.10644C4.42013 3.27632 4.08259 3.51154 3.80162 3.81023C3.52065 4.10893 3.30191 4.46363 3.14539 4.8706C2.98888 5.27943 2.91155 5.72561 2.91155 6.20912C2.91155 6.69263 2.99076 7.15933 3.14539 7.5719C3.30191 7.98447 3.51877 8.33917 3.79408 8.63226C4.0694 8.92536 4.40128 9.15684 4.78785 9.32113C5.17254 9.48727 5.59495 9.56941 6.05507 9.56941C6.58684 9.56941 7.05073 9.46674 7.44673 9.25952C7.84274 9.0523 8.16142 8.78534 8.40091 8.45492L10.2621 10.1892C9.77183 10.7474 9.16652 11.188 8.44805 11.5128H8.44617Z" fill="black"/>
<path id="Vector_2" d="M18.7064 7.82013C18.7064 8.44925 18.5914 9.0205 18.3613 9.53015C18.1312 10.0417 17.8182 10.4748 17.4222 10.8313C17.0262 11.1879 16.568 11.4642 16.0456 11.6602C15.5252 11.8562 14.967 11.9552 14.373 11.9552C13.779 11.9552 13.234 11.8562 12.7079 11.6602C12.1818 11.4642 11.7235 11.1879 11.3313 10.8313C10.941 10.4748 10.6298 10.0417 10.4016 9.53015C10.1716 9.01864 10.0584 8.44925 10.0584 7.82013C10.0584 7.19101 10.1735 6.62349 10.4016 6.11758C10.6317 5.61167 10.941 5.18416 11.3313 4.8332C11.7216 4.48223 12.1818 4.21341 12.7079 4.02859C13.234 3.84191 13.7903 3.75044 14.373 3.75044C14.9557 3.75044 15.5252 3.84378 16.0456 4.02859C16.5661 4.21341 17.0262 4.48223 17.4222 4.8332C17.8182 5.18416 18.1312 5.61354 18.3613 6.11758C18.5914 6.62349 18.7064 7.19101 18.7064 7.82013ZM16.2342 7.82013C16.2342 7.57184 16.1927 7.32915 16.1097 7.09207C16.0268 6.85498 15.9061 6.64589 15.7496 6.46481C15.593 6.28373 15.4007 6.13812 15.1706 6.02424C14.9406 5.91036 14.6747 5.85436 14.373 5.85436C14.0713 5.85436 13.8054 5.91036 13.5753 6.02424C13.3453 6.13812 13.1548 6.2856 13.0039 6.46481C12.8531 6.64589 12.7381 6.85498 12.6607 7.09207C12.5834 7.32915 12.5438 7.57184 12.5438 7.82013C12.5438 8.06842 12.5834 8.31111 12.6607 8.5482C12.7399 8.78528 12.8569 8.99997 13.0134 9.19039C13.1699 9.3808 13.3622 9.53388 13.5923 9.64776C13.8223 9.76164 14.0882 9.81764 14.39 9.81764C14.6917 9.81764 14.9576 9.76164 15.1876 9.64776C15.4158 9.53388 15.61 9.38267 15.7665 9.19039C15.9231 8.99997 16.04 8.78528 16.1192 8.5482C16.1965 8.31111 16.2361 8.06842 16.2361 7.82013H16.2342Z" fill="black"/>
<path id="Vector_3" d="M19.7379 11.705V0H22.3496V11.705H19.7379Z" fill="black"/>
<path id="Vector_4" d="M31.9989 7.82013C31.9989 8.44925 31.8839 9.0205 31.6538 9.53015C31.4238 10.0417 31.1107 10.4748 30.7147 10.8313C30.3187 11.1879 29.8605 11.4642 29.3382 11.6602C28.8177 11.8562 28.2595 11.9552 27.6655 11.9552C27.0715 11.9552 26.5265 11.8562 26.0004 11.6602C25.4743 11.4642 25.0161 11.1879 24.6238 10.8313C24.2335 10.4748 23.9223 10.0417 23.6942 9.53015C23.4641 9.01864 23.351 8.44925 23.351 7.82013C23.351 7.19101 23.466 6.62349 23.6942 6.11758C23.9242 5.61167 24.2335 5.18416 24.6238 4.8332C25.0142 4.48223 25.4743 4.21341 26.0004 4.02859C26.5265 3.84191 27.0828 3.75044 27.6655 3.75044C28.2482 3.75044 28.8177 3.84378 29.3382 4.02859C29.8586 4.21341 30.3187 4.48223 30.7147 4.8332C31.1107 5.18416 31.4238 5.61354 31.6538 6.11758C31.8839 6.62349 31.9989 7.19101 31.9989 7.82013ZM29.5286 7.82013C29.5286 7.57184 29.4871 7.32915 29.4042 7.09207C29.3212 6.85498 29.2005 6.64589 29.044 6.46481C28.8875 6.28373 28.6951 6.13812 28.4651 6.02424C28.235 5.91036 27.9691 5.85436 27.6674 5.85436C27.3657 5.85436 27.0998 5.91036 26.8697 6.02424C26.6397 6.13812 26.4492 6.2856 26.2984 6.46481C26.1475 6.64589 26.0325 6.85498 25.9552 7.09207C25.8778 7.32915 25.8382 7.57184 25.8382 7.82013C25.8382 8.06842 25.8778 8.31111 25.9552 8.5482C26.0344 8.78528 26.1513 8.99997 26.3078 9.19039C26.4643 9.3808 26.6567 9.53388 26.8867 9.64776C27.1168 9.76164 27.3827 9.81764 27.6844 9.81764C27.9861 9.81764 28.252 9.76164 28.482 9.64776C28.7102 9.53388 28.9044 9.38267 29.061 9.19039C29.2175 8.99997 29.3344 8.78528 29.4136 8.5482C29.4909 8.31111 29.5305 8.06842 29.5305 7.82013H29.5286Z" fill="black"/>
<path id="Vector_5" d="M37.5825 6.27034C37.3732 6.07433 37.128 5.90818 36.847 5.77563C36.5661 5.64122 36.2681 5.57401 35.9551 5.57401C35.7156 5.57401 35.4931 5.62068 35.2913 5.71402C35.0895 5.80737 34.9858 5.96792 34.9858 6.1938C34.9858 6.41969 35.0971 6.5653 35.3215 6.65864C35.5459 6.75198 35.9079 6.85466 36.4077 6.96854C36.6999 7.03014 36.9941 7.11788 37.2921 7.23176C37.59 7.34564 37.8578 7.49498 38.0973 7.68167C38.3368 7.86835 38.5291 8.09424 38.6762 8.36306C38.8214 8.63188 38.8949 8.95111 38.8949 9.32261C38.8949 9.80799 38.795 10.2187 38.597 10.5529C38.399 10.8889 38.1406 11.1596 37.8238 11.3649C37.5051 11.5721 37.1487 11.7215 36.7527 11.8148C36.3567 11.9082 35.9607 11.9548 35.5647 11.9548C34.9292 11.9548 34.3051 11.854 33.696 11.6524C33.0869 11.4508 32.5777 11.154 32.1704 10.7619L33.6092 9.26101C33.8393 9.50929 34.1203 9.71465 34.454 9.8808C34.7878 10.0451 35.1423 10.1291 35.5176 10.1291C35.7269 10.1291 35.9324 10.0805 36.1361 9.9816C36.3398 9.88453 36.4416 9.71091 36.4416 9.46262C36.4416 9.21434 36.3171 9.05006 36.0663 8.93618C35.8155 8.8223 35.4252 8.70469 34.8934 8.57961C34.6219 8.51801 34.3503 8.43587 34.0807 8.33132C33.8091 8.22865 33.5678 8.08864 33.3528 7.91315C33.1397 7.73767 32.9643 7.52112 32.8285 7.2635C32.6928 7.00587 32.6249 6.69598 32.6249 6.33381C32.6249 5.86897 32.7229 5.47507 32.9228 5.15024C33.1208 4.82541 33.3754 4.56032 33.6884 4.3531C34.0015 4.14589 34.3484 3.99467 34.7275 3.89573C35.1084 3.79866 35.4855 3.74825 35.8608 3.74825C36.4454 3.74825 37.0149 3.83786 37.573 4.01894C38.1312 4.20002 38.6026 4.47071 38.9892 4.83101L37.5825 6.27034Z" fill="black"/>
<path id="Vector_6" d="M48.0125 7.82013C48.0125 8.44925 47.8975 9.0205 47.6674 9.53015C47.4373 10.0417 47.1243 10.4748 46.7283 10.8313C46.3323 11.1879 45.8741 11.4642 45.3517 11.6602C44.8313 11.8562 44.2731 11.9552 43.6791 11.9552C43.0851 11.9552 42.5401 11.8562 42.014 11.6602C41.4879 11.4642 41.0296 11.1879 40.6374 10.8313C40.2471 10.4748 39.9359 10.0417 39.7077 9.53015C39.4777 9.01864 39.3646 8.44925 39.3646 7.82013C39.3646 7.19101 39.4796 6.62349 39.7077 6.11758C39.9378 5.61167 40.2471 5.18416 40.6374 4.8332C41.0278 4.48223 41.4879 4.21341 42.014 4.02859C42.5401 3.84191 43.0964 3.75044 43.6791 3.75044C44.2618 3.75044 44.8313 3.84378 45.3517 4.02859C45.8722 4.21341 46.3323 4.48223 46.7283 4.8332C47.1243 5.18416 47.4373 5.61354 47.6674 6.11758C47.8975 6.62349 48.0125 7.19101 48.0125 7.82013ZM45.5422 7.82013C45.5422 7.57184 45.5007 7.32915 45.4177 7.09207C45.3348 6.85498 45.2141 6.64589 45.0576 6.46481C44.901 6.28373 44.7087 6.13812 44.4786 6.02424C44.2486 5.91036 43.9827 5.85436 43.681 5.85436C43.3793 5.85436 43.1134 5.91036 42.8833 6.02424C42.6533 6.13812 42.4628 6.2856 42.3119 6.46481C42.1611 6.64589 42.0461 6.85498 41.9687 7.09207C41.8914 7.32915 41.8518 7.57184 41.8518 7.82013C41.8518 8.06842 41.8914 8.31111 41.9687 8.5482C42.0479 8.78528 42.1649 8.99997 42.3214 9.19039C42.4779 9.3808 42.6702 9.53388 42.9003 9.64776C43.1303 9.76164 43.3962 9.81764 43.6979 9.81764C43.9997 9.81764 44.2655 9.76164 44.4956 9.64776C44.7238 9.53388 44.918 9.38267 45.0745 9.19039C45.231 8.99997 45.348 8.78528 45.4272 8.5482C45.5045 8.31111 45.5441 8.06842 45.5441 7.82013H45.5422Z" fill="black"/>
<path id="Vector_7" d="M51.75 10.3421C51.75 10.7752 51.5954 11.1373 51.288 11.4267C50.9806 11.7161 50.6129 11.8598 50.1848 11.8598C49.9661 11.8598 49.7605 11.8206 49.5663 11.7441C49.374 11.6657 49.2043 11.5611 49.0572 11.4267C48.912 11.2923 48.7969 11.1355 48.714 10.9544C48.631 10.7733 48.5895 10.5754 48.5895 10.3589C48.5895 10.1423 48.631 9.95564 48.714 9.77083C48.7969 9.58415 48.912 9.42173 49.0572 9.28358C49.2024 9.14357 49.3721 9.03343 49.5663 8.95129C49.7587 8.86915 49.9661 8.82808 50.1848 8.82808C50.6129 8.82808 50.9787 8.97182 51.288 9.26118C51.5954 9.55054 51.75 9.91084 51.75 10.3458V10.3421Z" fill="#FFB200"/>
</g>
</svg>
